<?xml version="1.0" standalone="no"?>
<!DOCTYPE svg PUBLIC "-//W3C//DTD SVG 20010904//EN"
 "http://www.w3.org/TR/2001/REC-SVG-20010904/DTD/svg10.dtd">
<svg version="1.0" xmlns="http://www.w3.org/2000/svg"
 width="400.000000pt" height="71.000000pt" viewBox="0 0 400.000000 71.000000"
 preserveAspectRatio="xMidYMid meet">

<g transform="translate(0.000000,71.000000) scale(0.100000,-0.100000)"
fill="#000000" stroke="none">
<path d="M48 614 c-5 -4 -8 -119 -8 -256 l0 -248 55 0 55 0 0 79 0 78 75 6
c90 7 141 30 173 77 20 30 23 45 20 102 -7 125 -56 159 -242 166 -67 2 -124 1
-128 -4z m242 -109 c14 -13 20 -31 20 -61 0 -59 -32 -84 -106 -84 l-54 0 0 86
0 86 60 -4 c39 -3 66 -11 80 -23z"/>
<path d="M609 592 c-81 -42 -113 -99 -117 -212 -3 -73 0 -95 18 -139 67 -155
275 -185 388 -57 89 101 76 302 -24 385 -72 59 -179 68 -265 23z m168 -79 c89
-42 97 -237 12 -297 -27 -19 -87 -21 -124 -4 -55 25 -84 117 -65 203 22 98 94
138 177 98z"/>
<path d="M1040 366 l0 -256 55 0 55 0 0 90 0 90 38 0 c36 0 38 -2 85 -90 l48
-90 54 0 c30 0 55 3 55 8 0 4 -22 47 -49 95 l-48 88 38 37 c56 57 64 136 20
208 -31 51 -79 67 -223 72 l-128 5 0 -257z m251 135 c25 -30 24 -76 -1 -101
-16 -16 -33 -20 -80 -20 l-60 0 0 76 0 76 61 -4 c49 -4 66 -9 80 -27z"/>
<path d="M1477 613 c-4 -3 -7 -24 -7 -45 l0 -38 80 0 80 0 0 -210 0 -210 55 0
55 0 0 210 0 210 75 0 75 0 0 45 0 45 -203 0 c-112 0 -207 -3 -210 -7z"/>
<path d="M1960 365 l0 -255 55 0 55 0 0 105 0 105 100 0 100 0 0 45 0 45 -100
0 -100 0 0 60 0 60 110 0 110 0 0 45 0 45 -165 0 -165 0 0 -255z"/>
<path d="M2494 601 c-52 -24 -108 -90 -124 -146 -20 -71 -9 -183 24 -239 82
-141 298 -151 389 -19 73 106 58 282 -30 365 -61 59 -177 76 -259 39z m155
-89 c19 -9 43 -33 53 -52 22 -42 24 -136 4 -184 -42 -100 -171 -103 -221 -6
-21 40 -19 146 3 190 17 36 70 70 107 70 11 0 35 -8 54 -18z"/>
<path d="M2917 614 c-4 -4 -7 -119 -7 -256 l0 -248 160 0 160 0 0 45 0 45
-105 0 -105 0 -2 208 -3 207 -45 3 c-25 2 -49 0 -53 -4z"/>
<path d="M3307 613 c-4 -3 -7 -118 -7 -255 l0 -248 55 0 55 0 0 255 0 255 -48
0 c-27 0 -52 -3 -55 -7z"/>
<path d="M3623 599 c-91 -45 -140 -145 -130 -265 12 -158 142 -259 287 -224
115 28 180 116 180 246 0 122 -45 203 -135 245 -56 26 -148 25 -202 -2z m164
-89 c46 -27 64 -70 64 -145 0 -111 -42 -165 -129 -165 -75 0 -122 63 -122 162
1 131 94 205 187 148z"/>
</g>
</svg>
